M48
METRIC,LZ,000.000
;FILE_FORMAT=3:3
;TYPE=PLATED
;Layer: PTH_Through
;EasyEDA v6.5.34, 2023-10-04 09:58:22
;2f879fd4b15e4f869ab7f95f132c22b4,4b518e1cc4d04e0db21987f26a906896,10
;Gerber Generator version 0.2
;Holesize 1 = 0.798 mm
T01C0.798
;Holesize 2 = 0.901 mm
T02C0.901
;Holesize 3 = 0.915 mm
T03C0.915
%
G05
G90
T01
X085852Y010541
X078232Y010541
X083312Y010541
X080772Y010541
T02
X044323Y042291
X049403Y042291
X046863Y042291
X051943Y042291
X054483Y042291
X057023Y042291
X062103Y042291
X059563Y042291
X064643Y042291
X067183Y042291
X069723Y042291
X072263Y042291
X074803Y042291
X074803Y019412
X072263Y019412
X069723Y019431
X067183Y019412
X064643Y019412
X059563Y019412
X062103Y019412
X057023Y019412
X054483Y019412
X051943Y019412
X046863Y019412
X049403Y019412
X044323Y019431
T03
X023368Y034417
X028448Y034417
X028448Y026797
X023368Y026797
M30
