G04 Layer: BottomLayer*
G04 EasyEDA v6.5.34, 2023-10-04 09:58:22*
G04 2f879fd4b15e4f869ab7f95f132c22b4,4b518e1cc4d04e0db21987f26a906896,10*
G04 Gerber Generator version 0.2*
G04 Scale: 100 percent, Rotated: No, Reflected: No *
G04 Dimensions in millimeters *
G04 leading zeros omitted , absolute positions ,4 integer and 5 decimal *
%FSLAX45Y45*%
%MOMM*%

%ADD10C,0.4000*%
%ADD11C,1.5240*%
%ADD12O,1.7999964X1.9999959999999999*%
%ADD13R,1.7780X1.7780*%

%LPD*%
G36*
X1981606Y-2018792D02*
G01*
X1938832Y-2017826D01*
X1896770Y-2014982D01*
X1854911Y-2010257D01*
X1813255Y-2003653D01*
X1771954Y-1995170D01*
X1731111Y-1984857D01*
X1690725Y-1972716D01*
X1650949Y-1958797D01*
X1611833Y-1943100D01*
X1573428Y-1925675D01*
X1535887Y-1906524D01*
X1499260Y-1885696D01*
X1463548Y-1863293D01*
X1428902Y-1839264D01*
X1395374Y-1813712D01*
X1363014Y-1786686D01*
X1331925Y-1758238D01*
X1302156Y-1728419D01*
X1273708Y-1697329D01*
X1246682Y-1664970D01*
X1221181Y-1631391D01*
X1197152Y-1596745D01*
X1174750Y-1561033D01*
X1153972Y-1524406D01*
X1134821Y-1486814D01*
X1117396Y-1448460D01*
X1101750Y-1409344D01*
X1087831Y-1369517D01*
X1075690Y-1329182D01*
X1065428Y-1288288D01*
X1056995Y-1246987D01*
X1050391Y-1205331D01*
X1045667Y-1163472D01*
X1042873Y-1121410D01*
X1041908Y-1079093D01*
X1041908Y5651093D01*
X1042873Y5693867D01*
X1045718Y5735929D01*
X1050442Y5777788D01*
X1057046Y5819444D01*
X1065530Y5860745D01*
X1075842Y5901588D01*
X1087983Y5941974D01*
X1101902Y5981750D01*
X1117600Y6020866D01*
X1135024Y6059220D01*
X1154176Y6096762D01*
X1175004Y6133439D01*
X1197406Y6169101D01*
X1221435Y6203746D01*
X1246987Y6237274D01*
X1274013Y6269634D01*
X1302461Y6300774D01*
X1332280Y6330543D01*
X1363370Y6358991D01*
X1395730Y6385966D01*
X1429308Y6411518D01*
X1463954Y6435496D01*
X1499616Y6457950D01*
X1536293Y6478727D01*
X1573885Y6497828D01*
X1612239Y6515252D01*
X1651355Y6530949D01*
X1691182Y6544868D01*
X1731518Y6556959D01*
X1772412Y6567271D01*
X1813712Y6575704D01*
X1855317Y6582308D01*
X1897227Y6586981D01*
X1939289Y6589826D01*
X1981606Y6590792D01*
X9702393Y6590792D01*
X9745167Y6589826D01*
X9787178Y6586981D01*
X9829088Y6582257D01*
X9870694Y6575653D01*
X9911994Y6567170D01*
X9952888Y6556857D01*
X9993274Y6544716D01*
X10033050Y6530797D01*
X10072166Y6515100D01*
X10110520Y6497675D01*
X10148062Y6478524D01*
X10184739Y6457696D01*
X10220401Y6435242D01*
X10255046Y6411264D01*
X10288574Y6385712D01*
X10320934Y6358686D01*
X10352024Y6330238D01*
X10381843Y6300419D01*
X10410291Y6269329D01*
X10437266Y6236919D01*
X10462818Y6203391D01*
X10486796Y6168745D01*
X10509199Y6133033D01*
X10530027Y6096406D01*
X10549128Y6058814D01*
X10566552Y6020460D01*
X10582249Y5981293D01*
X10596168Y5941517D01*
X10608259Y5901131D01*
X10618571Y5860288D01*
X10627004Y5818987D01*
X10633608Y5777331D01*
X10638282Y5735472D01*
X10641126Y5693410D01*
X10642092Y5651093D01*
X10642092Y-1079093D01*
X10641126Y-1121867D01*
X10638282Y-1163929D01*
X10633506Y-1205788D01*
X10626902Y-1247444D01*
X10618470Y-1288745D01*
X10608157Y-1329588D01*
X10596016Y-1369974D01*
X10582097Y-1409750D01*
X10566400Y-1448866D01*
X10548924Y-1487220D01*
X10529773Y-1524812D01*
X10508996Y-1561439D01*
X10486542Y-1597152D01*
X10462514Y-1631797D01*
X10437012Y-1665325D01*
X10409986Y-1697634D01*
X10381538Y-1728774D01*
X10351719Y-1758543D01*
X10320578Y-1786991D01*
X10288219Y-1814017D01*
X10254691Y-1839518D01*
X10220045Y-1863496D01*
X10184333Y-1885950D01*
X10147655Y-1906727D01*
X10110114Y-1925878D01*
X10071709Y-1943303D01*
X10032593Y-1958949D01*
X9992817Y-1972868D01*
X9952431Y-1985010D01*
X9911588Y-1995271D01*
X9870287Y-2003704D01*
X9828631Y-2010308D01*
X9786772Y-2015032D01*
X9744710Y-2017826D01*
X9702393Y-2018792D01*
G37*

%LPC*%
G36*
X7734655Y864666D02*
G01*
X7772400Y864666D01*
X7772400Y1003300D01*
X7633817Y1003300D01*
X7633817Y965555D01*
X7634681Y952093D01*
X7637221Y939190D01*
X7641488Y926744D01*
X7647279Y914958D01*
X7654594Y904036D01*
X7663230Y894130D01*
X7673136Y885494D01*
X7684058Y878179D01*
X7695844Y872337D01*
X7708290Y868121D01*
X7721193Y865581D01*
G37*
G36*
X7874000Y864666D02*
G01*
X7911744Y864666D01*
X7925206Y865581D01*
X7938109Y868121D01*
X7946948Y871118D01*
X7950200Y871677D01*
X7953451Y871118D01*
X7962290Y868121D01*
X7975193Y865581D01*
X7988655Y864666D01*
X8165744Y864666D01*
X8179206Y865581D01*
X8192109Y868121D01*
X8200948Y871118D01*
X8204200Y871677D01*
X8207451Y871118D01*
X8216290Y868121D01*
X8229193Y865581D01*
X8242655Y864666D01*
X8419744Y864666D01*
X8433206Y865581D01*
X8446109Y868121D01*
X8454948Y871118D01*
X8458200Y871677D01*
X8461451Y871118D01*
X8470290Y868121D01*
X8483193Y865581D01*
X8496655Y864666D01*
X8673744Y864666D01*
X8687206Y865581D01*
X8700109Y868121D01*
X8712555Y872337D01*
X8724341Y878179D01*
X8735263Y885494D01*
X8745169Y894130D01*
X8753805Y904036D01*
X8761120Y914958D01*
X8766962Y926744D01*
X8771178Y939190D01*
X8773718Y952093D01*
X8774633Y965555D01*
X8774633Y1142644D01*
X8773718Y1156106D01*
X8771178Y1169009D01*
X8766962Y1181455D01*
X8761120Y1193241D01*
X8753805Y1204163D01*
X8745169Y1214069D01*
X8735263Y1222705D01*
X8724341Y1230020D01*
X8712555Y1235811D01*
X8700109Y1240078D01*
X8687206Y1242618D01*
X8673744Y1243482D01*
X8496655Y1243482D01*
X8483193Y1242618D01*
X8470290Y1240078D01*
X8465108Y1238300D01*
X8461349Y1237792D01*
X8457590Y1238707D01*
X8454491Y1240942D01*
X8452408Y1244142D01*
X8451697Y1247952D01*
X8451697Y1761134D01*
X8451494Y1768551D01*
X8450834Y1775815D01*
X8449716Y1783029D01*
X8448192Y1790141D01*
X8446262Y1797151D01*
X8443874Y1804009D01*
X8441080Y1810766D01*
X8437880Y1817268D01*
X8434324Y1823618D01*
X8430361Y1829765D01*
X8426043Y1835607D01*
X8421420Y1841195D01*
X8416290Y1846630D01*
X6333794Y3929126D01*
X6331559Y3932428D01*
X6330797Y3936288D01*
X6330797Y4061053D01*
X6331762Y4065371D01*
X6334506Y4068876D01*
X6338519Y4070908D01*
X6342938Y4071010D01*
X6347002Y4069181D01*
X6358483Y4060698D01*
X6374485Y4051096D01*
X6391402Y4043121D01*
X6408978Y4036822D01*
X6427114Y4032250D01*
X6445605Y4029506D01*
X6464300Y4028592D01*
X6482943Y4029506D01*
X6501434Y4032250D01*
X6519570Y4036822D01*
X6537198Y4043121D01*
X6554114Y4051096D01*
X6570116Y4060698D01*
X6585254Y4071924D01*
X6589166Y4073702D01*
X6593433Y4073702D01*
X6597345Y4071924D01*
X6612483Y4060698D01*
X6628485Y4051096D01*
X6645402Y4043121D01*
X6662978Y4036822D01*
X6681114Y4032250D01*
X6699605Y4029506D01*
X6718300Y4028592D01*
X6736943Y4029506D01*
X6755434Y4032250D01*
X6773570Y4036822D01*
X6791198Y4043121D01*
X6808114Y4051096D01*
X6824116Y4060698D01*
X6839254Y4071924D01*
X6843166Y4073702D01*
X6847433Y4073702D01*
X6851345Y4071924D01*
X6866483Y4060698D01*
X6882485Y4051096D01*
X6899402Y4043121D01*
X6916978Y4036822D01*
X6935114Y4032250D01*
X6953605Y4029506D01*
X6972300Y4028592D01*
X6990943Y4029506D01*
X7009434Y4032250D01*
X7027570Y4036822D01*
X7045198Y4043121D01*
X7062114Y4051096D01*
X7078116Y4060698D01*
X7093254Y4071924D01*
X7097166Y4073702D01*
X7101433Y4073702D01*
X7105345Y4071924D01*
X7120483Y4060698D01*
X7136485Y4051096D01*
X7153402Y4043121D01*
X7170978Y4036822D01*
X7189114Y4032250D01*
X7207605Y4029506D01*
X7226300Y4028592D01*
X7244943Y4029506D01*
X7263434Y4032250D01*
X7281570Y4036822D01*
X7299198Y4043121D01*
X7316114Y4051096D01*
X7332116Y4060698D01*
X7347254Y4071924D01*
X7351166Y4073702D01*
X7355433Y4073702D01*
X7359345Y4071924D01*
X7374483Y4060698D01*
X7390485Y4051096D01*
X7407402Y4043121D01*
X7424978Y4036822D01*
X7443114Y4032250D01*
X7461605Y4029506D01*
X7480300Y4028592D01*
X7498943Y4029506D01*
X7517434Y4032250D01*
X7535570Y4036822D01*
X7553198Y4043121D01*
X7570114Y4051096D01*
X7586116Y4060698D01*
X7601153Y4071823D01*
X7614970Y4084370D01*
X7627569Y4098239D01*
X7638694Y4113276D01*
X7648295Y4129278D01*
X7656271Y4146194D01*
X7662570Y4163822D01*
X7667142Y4181906D01*
X7669885Y4200398D01*
X7670800Y4219346D01*
X7670800Y4238853D01*
X7669885Y4257751D01*
X7667142Y4276242D01*
X7662570Y4294378D01*
X7656271Y4312005D01*
X7648295Y4328871D01*
X7638694Y4344924D01*
X7627569Y4359960D01*
X7614970Y4373778D01*
X7601153Y4386326D01*
X7586116Y4397502D01*
X7570114Y4407103D01*
X7553198Y4415078D01*
X7535570Y4421378D01*
X7517434Y4425950D01*
X7498943Y4428693D01*
X7480300Y4429607D01*
X7461605Y4428693D01*
X7443114Y4425950D01*
X7424978Y4421378D01*
X7407402Y4415078D01*
X7390485Y4407103D01*
X7374483Y4397502D01*
X7359345Y4386275D01*
X7355433Y4384497D01*
X7351166Y4384497D01*
X7347254Y4386275D01*
X7332116Y4397502D01*
X7316114Y4407103D01*
X7299198Y4415078D01*
X7281570Y4421378D01*
X7263434Y4425950D01*
X7244943Y4428693D01*
X7226300Y4429607D01*
X7207605Y4428693D01*
X7189114Y4425950D01*
X7170978Y4421378D01*
X7153402Y4415078D01*
X7136485Y4407103D01*
X7120483Y4397502D01*
X7105345Y4386275D01*
X7101433Y4384497D01*
X7097166Y4384497D01*
X7093254Y4386275D01*
X7078116Y4397502D01*
X7062114Y4407103D01*
X7045198Y4415078D01*
X7027570Y4421378D01*
X7009434Y4425950D01*
X6990943Y4428693D01*
X6972300Y4429607D01*
X6953605Y4428693D01*
X6935114Y4425950D01*
X6916978Y4421378D01*
X6899402Y4415078D01*
X6882485Y4407103D01*
X6866483Y4397502D01*
X6851345Y4386275D01*
X6847433Y4384497D01*
X6843166Y4384497D01*
X6839254Y4386275D01*
X6824116Y4397502D01*
X6808114Y4407103D01*
X6791198Y4415078D01*
X6773570Y4421378D01*
X6755434Y4425950D01*
X6736943Y4428693D01*
X6718300Y4429607D01*
X6699605Y4428693D01*
X6681114Y4425950D01*
X6662978Y4421378D01*
X6645402Y4415078D01*
X6628485Y4407103D01*
X6612483Y4397502D01*
X6597345Y4386275D01*
X6593433Y4384497D01*
X6589166Y4384497D01*
X6585254Y4386275D01*
X6570116Y4397502D01*
X6554114Y4407103D01*
X6537198Y4415078D01*
X6519570Y4421378D01*
X6501434Y4425950D01*
X6482943Y4428693D01*
X6464300Y4429607D01*
X6445605Y4428693D01*
X6427114Y4425950D01*
X6408978Y4421378D01*
X6391402Y4415078D01*
X6374485Y4407103D01*
X6358483Y4397502D01*
X6343345Y4386275D01*
X6339433Y4384497D01*
X6335166Y4384497D01*
X6331254Y4386275D01*
X6316116Y4397502D01*
X6300114Y4407103D01*
X6283198Y4415078D01*
X6265570Y4421378D01*
X6247434Y4425950D01*
X6228943Y4428693D01*
X6210300Y4429607D01*
X6191605Y4428693D01*
X6173114Y4425950D01*
X6154978Y4421378D01*
X6137402Y4415078D01*
X6120485Y4407103D01*
X6104483Y4397502D01*
X6089345Y4386275D01*
X6085433Y4384497D01*
X6081166Y4384497D01*
X6077254Y4386275D01*
X6062116Y4397502D01*
X6046114Y4407103D01*
X6029198Y4415078D01*
X6011570Y4421378D01*
X5993434Y4425950D01*
X5974943Y4428693D01*
X5956300Y4429607D01*
X5937605Y4428693D01*
X5919114Y4425950D01*
X5900978Y4421378D01*
X5883402Y4415078D01*
X5866485Y4407103D01*
X5850483Y4397502D01*
X5835345Y4386275D01*
X5831433Y4384497D01*
X5827166Y4384497D01*
X5823254Y4386275D01*
X5808116Y4397502D01*
X5792114Y4407103D01*
X5775198Y4415078D01*
X5757570Y4421378D01*
X5739434Y4425950D01*
X5720943Y4428693D01*
X5702300Y4429607D01*
X5683605Y4428693D01*
X5665114Y4425950D01*
X5646978Y4421378D01*
X5629402Y4415078D01*
X5612485Y4407103D01*
X5596483Y4397502D01*
X5581345Y4386275D01*
X5577433Y4384497D01*
X5573166Y4384497D01*
X5569254Y4386275D01*
X5554116Y4397502D01*
X5538114Y4407103D01*
X5521198Y4415078D01*
X5503570Y4421378D01*
X5485485Y4425950D01*
X5466994Y4428693D01*
X5448300Y4429607D01*
X5429605Y4428693D01*
X5411114Y4425950D01*
X5392978Y4421378D01*
X5375402Y4415078D01*
X5358485Y4407103D01*
X5342483Y4397502D01*
X5327345Y4386275D01*
X5323433Y4384497D01*
X5319166Y4384497D01*
X5315254Y4386275D01*
X5300116Y4397502D01*
X5284114Y4407103D01*
X5267198Y4415078D01*
X5249570Y4421378D01*
X5231485Y4425950D01*
X5212994Y4428693D01*
X5194300Y4429607D01*
X5175605Y4428693D01*
X5157114Y4425950D01*
X5138978Y4421378D01*
X5121402Y4415078D01*
X5104485Y4407103D01*
X5088483Y4397502D01*
X5073345Y4386275D01*
X5069433Y4384497D01*
X5065166Y4384497D01*
X5061254Y4386275D01*
X5046116Y4397502D01*
X5030114Y4407103D01*
X5013198Y4415078D01*
X4995570Y4421378D01*
X4977485Y4425950D01*
X4958994Y4428693D01*
X4940300Y4429607D01*
X4921605Y4428693D01*
X4903114Y4425950D01*
X4884978Y4421378D01*
X4867402Y4415078D01*
X4850485Y4407103D01*
X4834483Y4397502D01*
X4819345Y4386275D01*
X4815433Y4384497D01*
X4811166Y4384497D01*
X4807254Y4386275D01*
X4792116Y4397502D01*
X4776114Y4407103D01*
X4759198Y4415078D01*
X4741621Y4421378D01*
X4723485Y4425950D01*
X4704994Y4428693D01*
X4686300Y4429607D01*
X4667605Y4428693D01*
X4649114Y4425950D01*
X4630978Y4421378D01*
X4613402Y4415078D01*
X4596485Y4407103D01*
X4580483Y4397502D01*
X4565345Y4386275D01*
X4561433Y4384497D01*
X4557166Y4384497D01*
X4553254Y4386275D01*
X4538116Y4397502D01*
X4522114Y4407103D01*
X4505198Y4415078D01*
X4487621Y4421378D01*
X4469485Y4425950D01*
X4450994Y4428693D01*
X4432300Y4429607D01*
X4413605Y4428693D01*
X4395114Y4425950D01*
X4376978Y4421378D01*
X4359402Y4415078D01*
X4342485Y4407103D01*
X4326483Y4397502D01*
X4311446Y4386326D01*
X4297578Y4373778D01*
X4285030Y4359960D01*
X4273905Y4344924D01*
X4264304Y4328871D01*
X4256328Y4312005D01*
X4250029Y4294378D01*
X4245457Y4276242D01*
X4242714Y4257751D01*
X4241800Y4238853D01*
X4241800Y4219346D01*
X4242714Y4200398D01*
X4245457Y4181906D01*
X4250029Y4163822D01*
X4256328Y4146194D01*
X4264304Y4129278D01*
X4273905Y4113276D01*
X4285030Y4098239D01*
X4297578Y4084370D01*
X4311446Y4071823D01*
X4326483Y4060698D01*
X4342485Y4051096D01*
X4359402Y4043121D01*
X4376978Y4036822D01*
X4395114Y4032250D01*
X4413605Y4029506D01*
X4432300Y4028592D01*
X4450994Y4029506D01*
X4469485Y4032250D01*
X4487621Y4036822D01*
X4505198Y4043121D01*
X4522114Y4051096D01*
X4538116Y4060698D01*
X4553254Y4071924D01*
X4557166Y4073702D01*
X4561433Y4073702D01*
X4565345Y4071924D01*
X4580483Y4060698D01*
X4596485Y4051096D01*
X4613402Y4043121D01*
X4630978Y4036822D01*
X4649114Y4032250D01*
X4667605Y4029506D01*
X4686300Y4028592D01*
X4704994Y4029506D01*
X4723485Y4032250D01*
X4741621Y4036822D01*
X4759198Y4043121D01*
X4776114Y4051096D01*
X4792116Y4060698D01*
X4807254Y4071924D01*
X4811166Y4073702D01*
X4815433Y4073702D01*
X4819345Y4071924D01*
X4834483Y4060698D01*
X4850485Y4051096D01*
X4867402Y4043121D01*
X4884978Y4036822D01*
X4903114Y4032250D01*
X4921605Y4029506D01*
X4940300Y4028592D01*
X4958994Y4029506D01*
X4977485Y4032250D01*
X4995570Y4036822D01*
X5013198Y4043121D01*
X5030114Y4051096D01*
X5046116Y4060698D01*
X5061254Y4071924D01*
X5065166Y4073702D01*
X5069433Y4073702D01*
X5073345Y4071924D01*
X5088483Y4060698D01*
X5104485Y4051096D01*
X5121402Y4043121D01*
X5138978Y4036822D01*
X5157114Y4032250D01*
X5175605Y4029506D01*
X5194300Y4028592D01*
X5212994Y4029506D01*
X5231485Y4032250D01*
X5249570Y4036822D01*
X5267198Y4043121D01*
X5284114Y4051096D01*
X5300116Y4060698D01*
X5315254Y4071924D01*
X5319166Y4073702D01*
X5323433Y4073702D01*
X5327345Y4071924D01*
X5342483Y4060698D01*
X5358485Y4051096D01*
X5375402Y4043121D01*
X5392978Y4036822D01*
X5411114Y4032250D01*
X5429605Y4029506D01*
X5448300Y4028592D01*
X5466994Y4029506D01*
X5485485Y4032250D01*
X5503570Y4036822D01*
X5521198Y4043121D01*
X5538114Y4051096D01*
X5554116Y4060698D01*
X5569254Y4071924D01*
X5573166Y4073702D01*
X5577433Y4073702D01*
X5581345Y4071924D01*
X5596483Y4060698D01*
X5612485Y4051096D01*
X5629402Y4043121D01*
X5646978Y4036822D01*
X5665114Y4032250D01*
X5683605Y4029506D01*
X5702300Y4028592D01*
X5720943Y4029506D01*
X5739434Y4032250D01*
X5757570Y4036822D01*
X5775198Y4043121D01*
X5792114Y4051096D01*
X5808116Y4060698D01*
X5819597Y4069181D01*
X5823661Y4071010D01*
X5828080Y4070908D01*
X5832094Y4068876D01*
X5834837Y4065371D01*
X5835802Y4061053D01*
X5835802Y3784549D01*
X5836005Y3777081D01*
X5836666Y3769868D01*
X5837783Y3762654D01*
X5839307Y3755542D01*
X5841238Y3748532D01*
X5843625Y3741623D01*
X5846419Y3734917D01*
X5849620Y3728364D01*
X5853176Y3722014D01*
X5857138Y3715918D01*
X5861456Y3710076D01*
X5866079Y3704437D01*
X5871210Y3699052D01*
X7422337Y2147925D01*
X7424572Y2144522D01*
X7425283Y2140559D01*
X7424420Y2136597D01*
X7422032Y2133295D01*
X7418578Y2131161D01*
X7407402Y2127199D01*
X7390485Y2119172D01*
X7374483Y2109571D01*
X7359345Y2098395D01*
X7355433Y2096617D01*
X7351166Y2096617D01*
X7347254Y2098395D01*
X7332116Y2109571D01*
X7316114Y2119172D01*
X7299198Y2127199D01*
X7281570Y2133498D01*
X7277658Y2134463D01*
X7277658Y1997557D01*
X7283043Y1997557D01*
X7287259Y1996643D01*
X7290714Y1994001D01*
X7292797Y1990191D01*
X7293102Y1985873D01*
X7290714Y1969871D01*
X7289800Y1950923D01*
X7289800Y1931466D01*
X7290714Y1912518D01*
X7293102Y1896516D01*
X7292797Y1892198D01*
X7290714Y1888388D01*
X7287259Y1885746D01*
X7283043Y1884832D01*
X7277658Y1884832D01*
X7277658Y1747926D01*
X7281570Y1748891D01*
X7299198Y1755190D01*
X7316114Y1763217D01*
X7332116Y1772818D01*
X7347254Y1783994D01*
X7351166Y1785772D01*
X7355433Y1785772D01*
X7359345Y1783994D01*
X7374483Y1772818D01*
X7390485Y1763217D01*
X7407402Y1755190D01*
X7424978Y1748891D01*
X7443114Y1744370D01*
X7461605Y1741627D01*
X7480300Y1740712D01*
X7498943Y1741627D01*
X7517434Y1744370D01*
X7535570Y1748891D01*
X7553198Y1755190D01*
X7570114Y1763217D01*
X7586116Y1772818D01*
X7601153Y1783943D01*
X7614970Y1796491D01*
X7627569Y1810359D01*
X7638694Y1825345D01*
X7648295Y1841398D01*
X7656271Y1858314D01*
X7662570Y1875891D01*
X7664602Y1883918D01*
X7666481Y1887728D01*
X7669733Y1890420D01*
X7673848Y1891588D01*
X7678064Y1890928D01*
X7681620Y1888642D01*
X7953705Y1616506D01*
X7955940Y1613255D01*
X7956702Y1609344D01*
X7956702Y1247952D01*
X7955991Y1244142D01*
X7953908Y1240942D01*
X7950809Y1238707D01*
X7947050Y1237792D01*
X7943291Y1238300D01*
X7938109Y1240078D01*
X7925206Y1242618D01*
X7911744Y1243482D01*
X7874000Y1243482D01*
X7874000Y1104900D01*
X7877657Y1104900D01*
X7881518Y1104138D01*
X7884820Y1101902D01*
X7887004Y1098651D01*
X7887817Y1094740D01*
X7887817Y1013460D01*
X7887004Y1009548D01*
X7884820Y1006297D01*
X7881518Y1004062D01*
X7877657Y1003300D01*
X7874000Y1003300D01*
G37*
G36*
X7633817Y1104900D02*
G01*
X7772400Y1104900D01*
X7772400Y1243482D01*
X7734655Y1243482D01*
X7721193Y1242618D01*
X7708290Y1240078D01*
X7695844Y1235811D01*
X7684058Y1230020D01*
X7673136Y1222705D01*
X7663230Y1214069D01*
X7654594Y1204163D01*
X7647279Y1193241D01*
X7641488Y1181455D01*
X7637221Y1169009D01*
X7634681Y1156106D01*
X7633817Y1142644D01*
G37*
G36*
X4686300Y1740712D02*
G01*
X4704994Y1741627D01*
X4723485Y1744370D01*
X4741621Y1748891D01*
X4759198Y1755190D01*
X4776114Y1763217D01*
X4792116Y1772818D01*
X4807254Y1783994D01*
X4811166Y1785772D01*
X4815433Y1785772D01*
X4819345Y1783994D01*
X4834483Y1772818D01*
X4850485Y1763217D01*
X4867402Y1755190D01*
X4884978Y1748891D01*
X4903114Y1744370D01*
X4921605Y1741627D01*
X4940300Y1740712D01*
X4958994Y1741627D01*
X4977485Y1744370D01*
X4995570Y1748891D01*
X5013198Y1755190D01*
X5030114Y1763217D01*
X5046116Y1772818D01*
X5061254Y1783994D01*
X5065166Y1785772D01*
X5069433Y1785772D01*
X5073345Y1783994D01*
X5088483Y1772818D01*
X5104485Y1763217D01*
X5121402Y1755190D01*
X5138978Y1748891D01*
X5157114Y1744370D01*
X5175605Y1741627D01*
X5194300Y1740712D01*
X5212994Y1741627D01*
X5231485Y1744370D01*
X5249570Y1748891D01*
X5267198Y1755190D01*
X5284114Y1763217D01*
X5300116Y1772818D01*
X5315254Y1783994D01*
X5319166Y1785772D01*
X5323433Y1785772D01*
X5327345Y1783994D01*
X5342483Y1772818D01*
X5358485Y1763217D01*
X5375402Y1755190D01*
X5392978Y1748891D01*
X5411114Y1744370D01*
X5429605Y1741627D01*
X5448300Y1740712D01*
X5466994Y1741627D01*
X5485485Y1744370D01*
X5503570Y1748891D01*
X5521198Y1755190D01*
X5538114Y1763217D01*
X5554116Y1772818D01*
X5569254Y1783994D01*
X5573166Y1785772D01*
X5577433Y1785772D01*
X5581345Y1783994D01*
X5596483Y1772818D01*
X5612485Y1763217D01*
X5629402Y1755190D01*
X5646978Y1748891D01*
X5665114Y1744370D01*
X5683605Y1741627D01*
X5702300Y1740712D01*
X5720943Y1741627D01*
X5739434Y1744370D01*
X5757570Y1748891D01*
X5775198Y1755190D01*
X5792114Y1763217D01*
X5808116Y1772818D01*
X5823254Y1783994D01*
X5827166Y1785772D01*
X5831433Y1785772D01*
X5835345Y1783994D01*
X5850483Y1772818D01*
X5866485Y1763217D01*
X5883402Y1755190D01*
X5900978Y1748891D01*
X5919114Y1744370D01*
X5937605Y1741627D01*
X5956300Y1740712D01*
X5974943Y1741627D01*
X5993434Y1744370D01*
X6011570Y1748891D01*
X6029198Y1755190D01*
X6046114Y1763217D01*
X6062116Y1772818D01*
X6077254Y1783994D01*
X6081166Y1785772D01*
X6085433Y1785772D01*
X6089345Y1783994D01*
X6104483Y1772818D01*
X6120485Y1763217D01*
X6137402Y1755190D01*
X6154978Y1748891D01*
X6173114Y1744370D01*
X6191605Y1741627D01*
X6210300Y1740712D01*
X6228943Y1741627D01*
X6247434Y1744370D01*
X6265570Y1748891D01*
X6283198Y1755190D01*
X6300114Y1763217D01*
X6316116Y1772818D01*
X6331254Y1783994D01*
X6335166Y1785772D01*
X6339433Y1785772D01*
X6343345Y1783994D01*
X6358483Y1772818D01*
X6374485Y1763217D01*
X6391402Y1755190D01*
X6408978Y1748891D01*
X6427114Y1744370D01*
X6445605Y1741627D01*
X6464300Y1740712D01*
X6482943Y1741627D01*
X6501434Y1744370D01*
X6519570Y1748891D01*
X6537198Y1755190D01*
X6554114Y1763217D01*
X6570116Y1772818D01*
X6585254Y1783994D01*
X6589166Y1785772D01*
X6593433Y1785772D01*
X6597345Y1783994D01*
X6612483Y1772818D01*
X6628485Y1763217D01*
X6645402Y1755190D01*
X6662978Y1748891D01*
X6681114Y1744370D01*
X6699605Y1741627D01*
X6718300Y1740712D01*
X6736943Y1741627D01*
X6755434Y1744370D01*
X6773570Y1748891D01*
X6791198Y1755190D01*
X6808114Y1763217D01*
X6824116Y1772818D01*
X6839661Y1784400D01*
X6842607Y1786280D01*
X6845960Y1787042D01*
X6849414Y1786585D01*
X6852513Y1785061D01*
X6866483Y1774698D01*
X6882485Y1765096D01*
X6899402Y1757121D01*
X6916978Y1750822D01*
X6935114Y1746250D01*
X6953605Y1743506D01*
X6972300Y1742592D01*
X6990994Y1743506D01*
X7009485Y1746250D01*
X7027570Y1750822D01*
X7045198Y1757121D01*
X7062114Y1765096D01*
X7078116Y1774698D01*
X7092035Y1785061D01*
X7095134Y1786585D01*
X7098588Y1787042D01*
X7101992Y1786280D01*
X7105446Y1783943D01*
X7120483Y1772818D01*
X7136485Y1763217D01*
X7153402Y1755190D01*
X7170978Y1748891D01*
X7174941Y1747926D01*
X7174941Y1884832D01*
X7169251Y1884832D01*
X7165035Y1885746D01*
X7161580Y1888388D01*
X7159498Y1892198D01*
X7159193Y1896516D01*
X7161885Y1914448D01*
X7162800Y1933346D01*
X7162800Y1952853D01*
X7161885Y1971751D01*
X7159802Y1985873D01*
X7160056Y1990191D01*
X7162139Y1994001D01*
X7165594Y1996643D01*
X7169810Y1997557D01*
X7174941Y1997557D01*
X7174941Y2134463D01*
X7170978Y2133498D01*
X7153402Y2127199D01*
X7136485Y2119172D01*
X7120483Y2109571D01*
X7106513Y2099259D01*
X7103414Y2097684D01*
X7099960Y2097278D01*
X7096607Y2098040D01*
X7093153Y2100376D01*
X7078116Y2111502D01*
X7062114Y2121103D01*
X7045198Y2129078D01*
X7027570Y2135378D01*
X7009485Y2139950D01*
X6990994Y2142693D01*
X6972300Y2143607D01*
X6953605Y2142693D01*
X6935114Y2139950D01*
X6916978Y2135378D01*
X6899402Y2129078D01*
X6882485Y2121103D01*
X6866483Y2111502D01*
X6850938Y2099868D01*
X6847992Y2098040D01*
X6844588Y2097278D01*
X6841185Y2097684D01*
X6838035Y2099259D01*
X6824116Y2109571D01*
X6808114Y2119172D01*
X6791198Y2127199D01*
X6773570Y2133498D01*
X6755434Y2138019D01*
X6736943Y2140762D01*
X6718300Y2141677D01*
X6699605Y2140762D01*
X6681114Y2138019D01*
X6662978Y2133498D01*
X6645402Y2127199D01*
X6628485Y2119172D01*
X6612483Y2109571D01*
X6597345Y2098395D01*
X6593433Y2096617D01*
X6589166Y2096617D01*
X6585254Y2098395D01*
X6570116Y2109571D01*
X6554114Y2119172D01*
X6537198Y2127199D01*
X6519570Y2133498D01*
X6501434Y2138019D01*
X6482943Y2140762D01*
X6464300Y2141677D01*
X6445605Y2140762D01*
X6427114Y2138019D01*
X6408978Y2133498D01*
X6391402Y2127199D01*
X6374485Y2119172D01*
X6358483Y2109571D01*
X6343345Y2098395D01*
X6339433Y2096617D01*
X6335166Y2096617D01*
X6331254Y2098395D01*
X6316116Y2109571D01*
X6300114Y2119172D01*
X6283198Y2127199D01*
X6265570Y2133498D01*
X6247434Y2138019D01*
X6228943Y2140762D01*
X6210300Y2141677D01*
X6191605Y2140762D01*
X6173114Y2138019D01*
X6154978Y2133498D01*
X6137402Y2127199D01*
X6120485Y2119172D01*
X6104483Y2109571D01*
X6089345Y2098395D01*
X6085433Y2096617D01*
X6081166Y2096617D01*
X6077254Y2098395D01*
X6062116Y2109571D01*
X6046114Y2119172D01*
X6029198Y2127199D01*
X6011570Y2133498D01*
X5993434Y2138019D01*
X5974943Y2140762D01*
X5956300Y2141677D01*
X5937605Y2140762D01*
X5919114Y2138019D01*
X5900978Y2133498D01*
X5883402Y2127199D01*
X5866485Y2119172D01*
X5850483Y2109571D01*
X5835345Y2098395D01*
X5831433Y2096617D01*
X5827166Y2096617D01*
X5823254Y2098395D01*
X5808116Y2109571D01*
X5792114Y2119172D01*
X5775198Y2127199D01*
X5757570Y2133498D01*
X5739434Y2138019D01*
X5720943Y2140762D01*
X5702300Y2141677D01*
X5683605Y2140762D01*
X5665114Y2138019D01*
X5646978Y2133498D01*
X5629402Y2127199D01*
X5612485Y2119172D01*
X5596483Y2109571D01*
X5581345Y2098395D01*
X5577433Y2096617D01*
X5573166Y2096617D01*
X5569254Y2098395D01*
X5554116Y2109571D01*
X5538114Y2119172D01*
X5521198Y2127199D01*
X5503570Y2133498D01*
X5485485Y2138019D01*
X5466994Y2140762D01*
X5448300Y2141677D01*
X5429605Y2140762D01*
X5411114Y2138019D01*
X5392978Y2133498D01*
X5375402Y2127199D01*
X5358485Y2119172D01*
X5342483Y2109571D01*
X5327345Y2098395D01*
X5323433Y2096617D01*
X5319166Y2096617D01*
X5315254Y2098395D01*
X5300116Y2109571D01*
X5284114Y2119172D01*
X5267198Y2127199D01*
X5249570Y2133498D01*
X5231485Y2138019D01*
X5212994Y2140762D01*
X5194300Y2141677D01*
X5175605Y2140762D01*
X5157114Y2138019D01*
X5138978Y2133498D01*
X5121402Y2127199D01*
X5104485Y2119172D01*
X5088483Y2109571D01*
X5073345Y2098395D01*
X5069433Y2096617D01*
X5065166Y2096617D01*
X5061254Y2098395D01*
X5046116Y2109571D01*
X5030114Y2119172D01*
X5013198Y2127199D01*
X4995570Y2133498D01*
X4977485Y2138019D01*
X4958994Y2140762D01*
X4940300Y2141677D01*
X4921605Y2140762D01*
X4903114Y2138019D01*
X4884978Y2133498D01*
X4867402Y2127199D01*
X4850485Y2119172D01*
X4834483Y2109571D01*
X4819345Y2098395D01*
X4815433Y2096617D01*
X4811166Y2096617D01*
X4807254Y2098395D01*
X4792116Y2109571D01*
X4776114Y2119172D01*
X4759198Y2127199D01*
X4741621Y2133498D01*
X4723485Y2138019D01*
X4704994Y2140762D01*
X4686300Y2141677D01*
X4667605Y2140762D01*
X4649114Y2138019D01*
X4630978Y2133498D01*
X4613402Y2127199D01*
X4596485Y2119172D01*
X4580483Y2109571D01*
X4566513Y2099259D01*
X4563414Y2097684D01*
X4560011Y2097278D01*
X4556607Y2098040D01*
X4553153Y2100376D01*
X4538116Y2111502D01*
X4522114Y2121103D01*
X4505198Y2129078D01*
X4487621Y2135378D01*
X4469485Y2139950D01*
X4450994Y2142693D01*
X4432300Y2143607D01*
X4413605Y2142693D01*
X4395114Y2139950D01*
X4376978Y2135378D01*
X4359402Y2129078D01*
X4342485Y2121103D01*
X4326483Y2111502D01*
X4311446Y2100376D01*
X4297578Y2087778D01*
X4285030Y2073960D01*
X4273905Y2058924D01*
X4264304Y2042922D01*
X4256328Y2026005D01*
X4250029Y2008378D01*
X4245457Y1990242D01*
X4242714Y1971751D01*
X4241800Y1952853D01*
X4241800Y1933346D01*
X4242714Y1914448D01*
X4245457Y1895957D01*
X4250029Y1877822D01*
X4256328Y1860194D01*
X4264304Y1843278D01*
X4273905Y1827275D01*
X4285030Y1812239D01*
X4297578Y1798421D01*
X4311446Y1785823D01*
X4326483Y1774698D01*
X4342485Y1765096D01*
X4359402Y1757121D01*
X4376978Y1750822D01*
X4395114Y1746250D01*
X4413605Y1743506D01*
X4432300Y1742592D01*
X4450994Y1743506D01*
X4469485Y1746250D01*
X4487621Y1750822D01*
X4505198Y1757121D01*
X4522114Y1765096D01*
X4538116Y1774698D01*
X4552086Y1785061D01*
X4555185Y1786585D01*
X4558588Y1787042D01*
X4561992Y1786280D01*
X4565446Y1783943D01*
X4580483Y1772818D01*
X4596485Y1763217D01*
X4613402Y1755190D01*
X4630978Y1748891D01*
X4649114Y1744370D01*
X4667605Y1741627D01*
G37*
G36*
X2341372Y2503068D02*
G01*
X2359507Y2504490D01*
X2377389Y2507742D01*
X2394864Y2512822D01*
X2411679Y2519680D01*
X2427782Y2528214D01*
X2442870Y2538374D01*
X2456840Y2550007D01*
X2469540Y2563063D01*
X2480818Y2577338D01*
X2490571Y2592679D01*
X2498699Y2608935D01*
X2505100Y2625953D01*
X2509774Y2643581D01*
X2512568Y2661513D01*
X2513482Y2679700D01*
X2512568Y2697886D01*
X2509774Y2715818D01*
X2505100Y2733446D01*
X2498699Y2750464D01*
X2490571Y2766720D01*
X2480818Y2782062D01*
X2469540Y2796336D01*
X2456840Y2809392D01*
X2442870Y2821025D01*
X2427782Y2831185D01*
X2411679Y2839720D01*
X2394864Y2846578D01*
X2377389Y2851658D01*
X2359507Y2854909D01*
X2341372Y2856331D01*
X2323185Y2855874D01*
X2305100Y2853537D01*
X2287422Y2849372D01*
X2270252Y2843377D01*
X2253742Y2835656D01*
X2238146Y2826308D01*
X2223617Y2815386D01*
X2210257Y2803042D01*
X2198268Y2789377D01*
X2187702Y2774543D01*
X2178761Y2758694D01*
X2171446Y2742031D01*
X2165908Y2724708D01*
X2162200Y2706878D01*
X2160320Y2688793D01*
X2160320Y2670606D01*
X2162200Y2652522D01*
X2165908Y2634691D01*
X2171446Y2617368D01*
X2178761Y2600706D01*
X2187702Y2584856D01*
X2198268Y2570022D01*
X2210257Y2556357D01*
X2223617Y2544013D01*
X2238146Y2533091D01*
X2253742Y2523744D01*
X2270252Y2516022D01*
X2287422Y2510028D01*
X2305100Y2505862D01*
X2323185Y2503525D01*
G37*
G36*
X2849372Y2503068D02*
G01*
X2867507Y2504490D01*
X2885389Y2507742D01*
X2902864Y2512822D01*
X2919679Y2519680D01*
X2935782Y2528214D01*
X2950870Y2538374D01*
X2964840Y2550007D01*
X2977540Y2563063D01*
X2988818Y2577338D01*
X2998571Y2592679D01*
X3006699Y2608935D01*
X3013100Y2625953D01*
X3017774Y2643581D01*
X3020568Y2661513D01*
X3021482Y2679700D01*
X3020568Y2697886D01*
X3017774Y2715818D01*
X3013100Y2733446D01*
X3006699Y2750464D01*
X2998571Y2766720D01*
X2988818Y2782062D01*
X2977540Y2796336D01*
X2964840Y2809392D01*
X2950870Y2821025D01*
X2935782Y2831185D01*
X2919679Y2839720D01*
X2902864Y2846578D01*
X2885389Y2851658D01*
X2867507Y2854909D01*
X2849372Y2856331D01*
X2831185Y2855874D01*
X2813100Y2853537D01*
X2795422Y2849372D01*
X2778252Y2843377D01*
X2761742Y2835656D01*
X2746146Y2826308D01*
X2731617Y2815386D01*
X2718257Y2803042D01*
X2706268Y2789377D01*
X2695702Y2774543D01*
X2686761Y2758694D01*
X2679446Y2742031D01*
X2673908Y2724708D01*
X2670200Y2706878D01*
X2668320Y2688793D01*
X2668320Y2670606D01*
X2670200Y2652522D01*
X2673908Y2634691D01*
X2679446Y2617368D01*
X2686761Y2600706D01*
X2695702Y2584856D01*
X2706268Y2570022D01*
X2718257Y2556357D01*
X2731617Y2544013D01*
X2746146Y2533091D01*
X2761742Y2523744D01*
X2778252Y2516022D01*
X2795422Y2510028D01*
X2813100Y2505862D01*
X2831185Y2503525D01*
G37*
G36*
X2849372Y3265068D02*
G01*
X2867507Y3266490D01*
X2885389Y3269742D01*
X2902864Y3274822D01*
X2919679Y3281679D01*
X2935782Y3290214D01*
X2950870Y3300374D01*
X2964840Y3312007D01*
X2977540Y3325063D01*
X2988818Y3339337D01*
X2998571Y3354679D01*
X3006699Y3370935D01*
X3013100Y3387953D01*
X3017774Y3405581D01*
X3020568Y3423513D01*
X3021482Y3441700D01*
X3020568Y3459886D01*
X3017774Y3477818D01*
X3013100Y3495446D01*
X3006699Y3512464D01*
X2998571Y3528720D01*
X2988818Y3544062D01*
X2977540Y3558336D01*
X2964840Y3571392D01*
X2950870Y3583025D01*
X2935782Y3593185D01*
X2919679Y3601720D01*
X2902864Y3608578D01*
X2885389Y3613658D01*
X2867507Y3616909D01*
X2849372Y3618331D01*
X2831185Y3617874D01*
X2813100Y3615537D01*
X2795422Y3611372D01*
X2778252Y3605377D01*
X2761742Y3597656D01*
X2746146Y3588308D01*
X2731617Y3577386D01*
X2718257Y3565042D01*
X2706268Y3551377D01*
X2695702Y3536543D01*
X2686761Y3520694D01*
X2679446Y3504031D01*
X2673908Y3486708D01*
X2670200Y3468878D01*
X2668320Y3450793D01*
X2668320Y3432606D01*
X2670200Y3414522D01*
X2673908Y3396691D01*
X2679446Y3379368D01*
X2686761Y3362706D01*
X2695702Y3346856D01*
X2706268Y3332022D01*
X2718257Y3318357D01*
X2731617Y3306013D01*
X2746146Y3295091D01*
X2761742Y3285744D01*
X2778252Y3278022D01*
X2795422Y3272028D01*
X2813100Y3267862D01*
X2831185Y3265525D01*
G37*
G36*
X2381250Y3270859D02*
G01*
X2394864Y3274822D01*
X2411679Y3281679D01*
X2427782Y3290214D01*
X2442870Y3300374D01*
X2456840Y3312007D01*
X2469540Y3325063D01*
X2480818Y3339337D01*
X2490571Y3354679D01*
X2498699Y3370935D01*
X2505100Y3387953D01*
X2507589Y3397250D01*
X2381250Y3397250D01*
G37*
G36*
X2292350Y3270859D02*
G01*
X2292350Y3397250D01*
X2165807Y3397250D01*
X2171446Y3379368D01*
X2178761Y3362706D01*
X2187702Y3346856D01*
X2198268Y3332022D01*
X2210257Y3318357D01*
X2223617Y3306013D01*
X2238146Y3295091D01*
X2253742Y3285744D01*
X2270252Y3278022D01*
X2287422Y3272028D01*
G37*
G36*
X2381250Y3486150D02*
G01*
X2507589Y3486150D01*
X2505100Y3495446D01*
X2498699Y3512464D01*
X2490571Y3528720D01*
X2480818Y3544062D01*
X2469540Y3558336D01*
X2456840Y3571392D01*
X2442870Y3583025D01*
X2427782Y3593185D01*
X2411679Y3601720D01*
X2394864Y3608578D01*
X2381250Y3612540D01*
G37*
G36*
X2165807Y3486150D02*
G01*
X2292350Y3486150D01*
X2292350Y3612540D01*
X2287422Y3611372D01*
X2270252Y3605377D01*
X2253742Y3597656D01*
X2238146Y3588308D01*
X2223617Y3577386D01*
X2210257Y3565042D01*
X2198268Y3551377D01*
X2187702Y3536543D01*
X2178761Y3520694D01*
X2171446Y3504031D01*
G37*

%LPD*%
D10*
X8331200Y1054100D02*
G01*
X8331200Y1761286D01*
X6210300Y3882186D01*
X6210300Y4229100D01*
X8077200Y1054100D02*
G01*
X8077200Y1663471D01*
X5956300Y3784371D01*
X5956300Y4229100D01*
X7823200Y1263040D02*
G01*
X7226300Y1859940D01*
X7226300Y1941195D01*
X7823200Y1054100D02*
G01*
X7823200Y1263040D01*
D11*
G01*
X2336800Y3441700D03*
G01*
X2844800Y3441700D03*
G01*
X2844800Y2679700D03*
G01*
X2336800Y2679700D03*
D12*
G01*
X4432300Y4229100D03*
G01*
X4940300Y4229100D03*
G01*
X4686300Y4229100D03*
G01*
X5194300Y4229100D03*
G01*
X5448300Y4229100D03*
G01*
X5702300Y4229100D03*
G01*
X6210300Y4229100D03*
G01*
X5956300Y4229100D03*
G01*
X6464300Y4229100D03*
G01*
X6718300Y4229100D03*
G01*
X6972300Y4229100D03*
G01*
X7226300Y4229100D03*
G01*
X7480300Y4229100D03*
G01*
X7480300Y1941195D03*
G01*
X7226300Y1941195D03*
G01*
X6972300Y1943100D03*
G01*
X6718300Y1941195D03*
G01*
X6464300Y1941195D03*
G01*
X5956300Y1941195D03*
G01*
X6210300Y1941195D03*
G01*
X5702300Y1941195D03*
G01*
X5448300Y1941195D03*
G01*
X5194300Y1941195D03*
G01*
X4686300Y1941195D03*
G01*
X4940300Y1941195D03*
G01*
X4432300Y1943100D03*
D13*
G01*
X8585200Y1054100D03*
G01*
X7823200Y1054100D03*
G01*
X8331200Y1054100D03*
G01*
X8077200Y1054100D03*
M02*
